<svg id="Layer_1" data-name="Layer 1" xmlns="http://www.w3.org/2000/svg" viewBox="0 0 220 250"><defs><style>.cls-1,.cls-3{fill:#fff;}.cls-2{fill:#a55556;}.cls-3{stroke:#231f20;}.cls-3,.cls-4{stroke-miterlimit:10;}.cls-4{fill:#231f20;stroke:#fff;}.cls-5{fill:#606161;}.cls-6{fill:#ed1c24;}</style></defs><rect class="cls-1" width="220" height="250"/><path class="cls-2" d="M195.13,143.12V248.9l-160,1.1V143.12h63V124.75a12.87,12.87,0,0,1,4.86-9.84c-26.57-5.65-46.2-25.77-46.2-49.72,0-28.33,27.5-51.3,61.42-51.3s61.44,23,61.44,51.3c0,23.44-18.8,43.2-44.48,49.34a12,12,0,0,1,4.66,9.26v19.33Z"/><ellipse class="cls-3" cx="92.48" cy="52.41" rx="8.44" ry="7.01"/><circle class="cls-4" cx="92.48" cy="52.41" r="3.42"/><ellipse class="cls-3" cx="143.12" cy="52.41" rx="8.44" ry="7.01"/><circle class="cls-4" cx="143.12" cy="52.41" r="3.42"/><rect class="cls-5" x="92.48" y="80.11" width="47.21" height="11.78"/><rect class="cls-6" x="107.17" y="86.01" width="17.83" height="6.69"/></svg>