<svg id="Layer_1" data-name="Layer 1" xmlns="http://www.w3.org/2000/svg" viewBox="0 0 60 61.87"><defs><style>.cls-1{fill:#c94f9d;}.cls-2{fill:#a55556;}.cls-3{fill:#fff;stroke:#231f20;stroke-miterlimit:10;stroke-width:0.25px;}.cls-4{fill:#231f20;}.cls-5{fill:#606161;}.cls-6{fill:#ed1c24;}</style></defs><rect class="cls-1" width="60" height="60"/><path class="cls-2" d="M56.91,39.2V61.87L4.43,60.15V39.2H25.08v-5a3.39,3.39,0,0,1,1.59-2.7C18,29.91,11.52,24.39,11.52,17.82c0-7.77,9-14.08,20.15-14.08s20.15,6.31,20.15,14.08c0,6.43-6.17,11.85-14.59,13.54a3.15,3.15,0,0,1,1.53,2.54v5.3Z"/><ellipse class="cls-3" cx="23.24" cy="15.17" rx="2.77" ry="1.84"/><ellipse class="cls-4" cx="23.24" cy="15.17" rx="1.12" ry="0.9"/><ellipse class="cls-3" cx="39.85" cy="15.17" rx="2.77" ry="1.84"/><ellipse class="cls-4" cx="39.85" cy="15.17" rx="1.12" ry="0.9"/><rect class="cls-5" x="23.24" y="22.44" width="15.49" height="3.09"/><rect class="cls-6" x="28.06" y="23.99" width="5.85" height="1.75"/></svg>