<svg id="Layer_1" data-name="Layer 1" xmlns="http://www.w3.org/2000/svg" viewBox="0 0 160 265.1"><defs><style>.cls-1{fill:#a55556;}.cls-2{fill:#fff;stroke:#231f20;}.cls-2,.cls-3{stroke-miterlimit:10;}.cls-3{fill:#231f20;stroke:#fff;}.cls-4{fill:#606161;}.cls-5{fill:#ed1c24;}</style></defs><path class="cls-1" d="M160,129.23V265.1H0V129.23H63V110.86A12.83,12.83,0,0,1,67.8,101C41.24,95.38,21.61,75.26,21.61,51.31,21.61,23,49.11,0,83,0s61.43,23,61.43,51.31c0,23.43-18.8,43.19-44.48,49.34a12,12,0,0,1,4.67,9.26v19.32Z"/><ellipse class="cls-2" cx="57.35" cy="38.52" rx="8.44" ry="7.01"/><circle class="cls-3" cx="57.35" cy="38.52" r="3.42"/><ellipse class="cls-2" cx="107.99" cy="38.52" rx="8.44" ry="7.01"/><circle class="cls-3" cx="107.99" cy="38.52" r="3.42"/><rect class="cls-4" x="57.35" y="66.23" width="47.21" height="11.78"/><rect class="cls-5" x="72.04" y="72.12" width="17.83" height="6.69"/></svg>